<svg width="149" height="149" viewBox="0 0 149 149" fill="none" xmlns="http://www.w3.org/2000/svg">
<mask id="mask0" mask-type="alpha" maskUnits="userSpaceOnUse" x="0" y="0" width="149" height="149">
<path fill-rule="evenodd" clip-rule="evenodd" d="M0 0H149V149H0V0Z" fill="white"/>
</mask>
<g mask="url(#mask0)">
<path fill-rule="evenodd" clip-rule="evenodd" d="M48.9191 10.6023L10.5959 48.9487C-3.53197 63.0853 -3.53197 86.005 10.5959 100.141L48.9191 138.488C59.6324 149.208 76.2389 152.002 89.8968 145.607C84.0167 143.977 78.4669 140.863 73.8501 136.244L62.6233 125.01C62.5836 124.971 62.5404 124.937 62.5012 124.898L24.178 86.5514C17.5512 79.9204 17.5512 69.1698 24.178 62.539L62.5012 24.1926C69.1279 17.5618 79.8721 17.5618 86.4988 24.1926L124.822 62.539C131.449 69.1698 131.449 79.9204 124.822 86.5514L100.466 110.922C100.104 111.284 99.5177 111.284 99.156 110.922L78.7006 90.4546L61.8135 73.5575L73.513 61.8511L100.019 88.3733L106.231 82.1583C110.302 78.0851 110.302 71.4812 106.231 67.408L82.2701 43.4329C77.4336 38.5935 69.5922 38.5935 64.7557 43.4329L43.4059 64.7956C38.5699 69.6348 38.5699 77.4802 43.4059 82.3192L65.1185 104.045L85.574 124.513C93.4367 132.38 106.185 132.38 114.048 124.513L138.404 100.141C152.532 86.005 152.532 63.0853 138.404 48.9487L100.081 10.6023C85.953 -3.5341 63.0472 -3.5341 48.9191 10.6023Z" fill="#DE4949"/>
</g>
</svg>
